<?xml version="1.0" encoding="UTF-8" standalone="no"?>
<svg
   version="1.1"
   id="Layer_1"
   x="0px"
   y="0px"
   width="363.349"
   viewBox="0 0 363.349 363.34899"
   enable-background="new 0 0 1024 1024"
   xml:space="preserve"
   sodipodi:docname="icon.svg"
   height="363.349"
   inkscape:export-filename="../Documents/pulsewatch/assets/pwa-splash-512.png"
   inkscape:export-xdpi="135.27"
   inkscape:export-ydpi="135.27"
   inkscape:version="1.4 (e7c3feb1, 2024-10-09)"
   xmlns:inkscape="http://www.inkscape.org/namespaces/inkscape"
   xmlns:sodipodi="http://sodipodi.sourceforge.net/DTD/sodipodi-0.dtd"
   xmlns="http://www.w3.org/2000/svg"
   xmlns:svg="http://www.w3.org/2000/svg"><defs
   id="defs12" /><sodipodi:namedview
   id="namedview12"
   pagecolor="#ffffff"
   bordercolor="#111111"
   borderopacity="1"
   inkscape:showpageshadow="0"
   inkscape:pageopacity="0"
   inkscape:pagecheckerboard="1"
   inkscape:deskcolor="#d1d1d1"
   showgrid="false"
   inkscape:zoom="0.66700659"
   inkscape:cx="78.709867"
   inkscape:cy="242.12654"
   inkscape:window-width="1728"
   inkscape:window-height="1080"
   inkscape:window-x="0"
   inkscape:window-y="37"
   inkscape:window-maximized="0"
   inkscape:current-layer="Layer_1" />

<g
   id="g12"
   transform="translate(25.000061,39.78375)"><path
     fill="#000000"
     opacity="1"
     stroke="none"
     d="m 150.22113,30.060422 c 7.69559,7.90372 6.33557,6.8349 12.84805,-0.0796 18.65964,-19.81146 41.82407,-30.85534036 68.87769,-29.92660036 35.55218,1.22042996 60.12478,20.27801036 74.17285,52.55285036 10.8157,24.84876 8.52444,49.954838 -0.47458,74.888948 -1.24139,3.43955 -3.50683,3.80081 -6.5773,3.79108 -20.15762,-0.064 -40.31616,0.0699 -60.47324,-0.0501 -6.76712,-0.0403 -11.17148,2.42895 -15.07223,8.42831 -2.33096,3.58502 -4.20444,6.73041 -6.77239,10.71321 -2.14202,3.32221 -3.46208,2.3013 -4.13541,0.0351 -1.9535,-6.57489 -3.75628,-12.30706 -5.43455,-18.07584 -6.17599,-21.22831 -12.29962,-42.471808 -18.4566,-63.705628 -0.32373,-1.11633 -0.71411,-2.22018 -1.16373,-3.29196 -1.70849,-4.0727 -4.53296,-6.55261 -9.21188,-6.16718 -4.40061,0.36255 -6.87448,2.99903 -7.99933,7.07138 -4.24857,15.38135 -8.4353,30.77988 -12.71936,46.151338 -4.63501,16.63058 -8.22561,27.85074 -12.97158,44.69626 -1.65026,3.43903 -3.62159,2.72714 -4.44557,-0.0836 -6.26797,-21.38122 -12.58912,-42.74716 -18.80426,-64.144098 -1.27945,-4.40482 -3.06497,-8.28635 -8.39628,-8.49949 -5.31233,-0.21228 -7.34102,3.50403 -9.10864,7.75525 -4.729341,11.374448 -9.753411,22.626528 -14.459371,34.010348 -1.55499,3.76153 -3.86174,5.24216 -7.97682,5.21323 -22.48917,-0.15821 -44.98011,-0.12418 -67.47003,-0.0453 -3.03874,0.0106 -4.8812098,-0.75867 -5.9760998,-3.88547 C 3.0952592,113.3477 -0.54932576,99.035632 0.06830424,84.019062 1.7806292,42.387502 30.606929,6.6080816 72.602169,0.96804164 102.89532,-3.1004084 128.91353,7.4894016 150.22113,30.060412 Z"
     id="path1"
     sodipodi:nodetypes="cssssssssscssssscssssssscsscc"
     style="fill:#d85148;fill-opacity:1" /><path
     fill="#000000"
     opacity="1"
     stroke="none"
     d="m 126.40375,164.06671 c 2.70466,8.97705 5.24806,17.58581 7.88812,26.16479 1.33406,4.33503 3.33749,8.26899 8.6812,8.25086 5.5823,-0.0189 7.66479,-4.21387 8.93379,-8.66797 3.82599,-13.42914 7.41995,-26.92419 11.13174,-40.38605 4.72925,-17.15185 9.22922,-34.36952 14.24573,-51.439508 0.55382,-1.88452 2.95016,-1.86023 3.55636,0.18219 6.95825,23.443488 14.72123,49.272768 21.59415,72.741448 1.27967,4.36957 3.04776,8.13733 8.26947,8.79639 5.31485,0.67096 7.66343,-2.78717 10.01322,-6.67755 4.47702,-7.41223 9.23227,-14.65582 13.80292,-22.01227 1.50195,-2.41736 3.44451,-4.28723 6.32577,-4.30121 17.97302,-0.087 32.22984,0.0197 50.03541,0.0197 3.49068,0.12992 3.18539,3.82147 2.28722,5.24035 -14.88525,23.5152 -33.48514,43.94788 -53.13565,63.46131 -23.08304,22.92199 -47.80725,43.96624 -73.86483,63.43438 -8.64567,6.45935 -10.93667,6.59003 -19.42805,0.11188 C 104.34469,246.64103 64.876889,211.21464 32.156709,168.814 c -4.36381,-5.65484 -7.66534,-11.20554 -11.64127,-17.15785 -1.4783,-2.21314 -0.8665,-4.98965 2.83804,-5.03134 21.66156,-0.24383 44.23011,-0.19276 65.89034,0.0404 5.8996,0.0635 9.3779,-2.21094 11.503751,-7.49509 2.60597,-6.47758 5.70608,-12.72216 8.83662,-19.43648 1.06057,-2.2747 2.57211,-3.32518 3.55816,0.0201 4.32243,14.66419 8.77057,29.3212 13.2614,44.31297 z"
     id="path2"
     sodipodi:nodetypes="cssssssscssccssscssssssscc"
     style="fill:#d85148;fill-opacity:1" /></g>










</svg>
