<svg width="905.196" height="333.781" xmlns="http://www.w3.org/2000/svg"><g fill="#d85148"><path d="M175.221 55.06c7.696 7.904 6.336 6.835 12.848-.08 18.66-19.81 41.824-30.855 68.878-29.926 35.552 1.22 60.125 20.278 74.173 52.553 10.815 24.849 8.524 49.955-.475 74.889-1.241 3.44-3.507 3.8-6.577 3.79-20.158-.063-40.316.07-60.473-.05-6.768-.04-11.172 2.43-15.073 8.43-2.33 3.584-4.204 6.73-6.772 10.712-2.142 3.322-3.462 2.302-4.135.035-1.954-6.575-3.757-12.307-5.435-18.075-6.176-21.229-12.3-42.472-18.457-63.706a30.456 30.456 0 00-1.163-3.292c-1.709-4.073-4.533-6.553-9.212-6.167-4.4.362-6.875 2.999-8 7.071-4.248 15.381-8.435 30.78-12.719 46.151-4.635 16.631-8.225 27.851-12.971 44.697-1.65 3.439-3.622 2.727-4.446-.084-6.268-21.381-12.59-42.747-18.804-64.144-1.28-4.405-3.065-8.286-8.397-8.5-5.312-.212-7.34 3.505-9.108 7.756-4.73 11.374-9.754 22.626-14.46 34.01-1.555 3.762-3.861 5.242-7.976 5.213-22.49-.158-44.98-.124-67.47-.045-3.04.01-4.882-.759-5.977-3.885-4.925-14.066-8.57-28.378-7.952-43.394 1.713-41.632 30.539-77.411 72.534-83.051 30.293-4.069 56.312 6.521 77.62 29.092z"/><path d="M151.404 189.066c2.704 8.978 5.248 17.586 7.888 26.165 1.334 4.335 3.337 8.27 8.681 8.251 5.582-.019 7.665-4.214 8.934-8.668 3.826-13.429 7.42-26.924 11.132-40.386 4.729-17.152 9.229-34.37 14.245-51.44.554-1.884 2.95-1.86 3.557.183 6.958 23.443 14.72 49.273 21.594 72.741 1.28 4.37 3.048 8.138 8.27 8.797 5.314.67 7.663-2.788 10.013-6.678 4.477-7.412 9.232-14.656 13.802-22.012 1.502-2.418 3.445-4.287 6.326-4.301 17.973-.087 32.23.02 50.036.02 3.49.13 3.185 3.82 2.287 5.24-14.885 23.515-33.485 43.948-53.136 63.46-23.083 22.923-47.807 43.967-73.865 63.435-8.645 6.46-10.936 6.59-19.428.112-42.395-32.344-81.863-67.77-114.583-110.171-4.364-5.655-7.666-11.206-11.642-17.158-1.478-2.213-.866-4.99 2.838-5.031 21.662-.244 44.23-.193 65.89.04 5.9.063 9.379-2.211 11.505-7.495 2.606-6.478 5.706-12.722 8.836-19.437 1.06-2.274 2.572-3.325 3.558.02 4.323 14.665 8.77 29.322 13.262 44.313z"/></g><text style="line-height:.9;-inkscape-font-specification:'Open Sans';text-align:start" x="363.349" y="154.391" font-weight="400" font-size="166.667" font-family="Open Sans" word-spacing="0" opacity=".998" fill="#fefefe" stroke="#000" stroke-width="0" stroke-linecap="round"><tspan x="363.349" y="154.391" style="-inkscape-font-specification:'Open Sans Bold'" font-weight="700">Pulse</tspan><tspan x="363.349" y="304.391" style="-inkscape-font-specification:'Open Sans Bold'" font-weight="700">Watch</tspan></text></svg>